<svg width="35" height="35" viewBox="0 0 35 35" fill="none" xmlns="http://www.w3.org/2000/svg">
<path d="M4.375 4.375H7.29167L7.875 7.29167L4.375 4.375ZM10.2083 18.9583H24.7917L30.625 7.29167H7.875L10.2083 18.9583ZM10.2083 18.9583L7.875 7.29167L10.2083 18.9583ZM10.2083 18.9583L6.86437 22.3023C5.94562 23.221 6.59604 24.7917 7.89542 24.7917H24.7917L10.2083 18.9583ZM24.7917 24.7917C24.0181 24.7917 23.2763 25.099 22.7293 25.6459C22.1823 26.1929 21.875 26.9348 21.875 27.7083C21.875 28.4819 22.1823 29.2237 22.7293 29.7707C23.2763 30.3177 24.0181 30.625 24.7917 30.625C25.5652 30.625 26.3071 30.3177 26.8541 29.7707C27.401 29.2237 27.7083 28.4819 27.7083 27.7083C27.7083 26.9348 27.401 26.1929 26.8541 25.6459C26.3071 25.099 25.5652 24.7917 24.7917 24.7917ZM13.125 27.7083C13.125 28.4819 12.8177 29.2237 12.2707 29.7707C11.7237 30.3177 10.9819 30.625 10.2083 30.625C9.43479 30.625 8.69292 30.3177 8.14594 29.7707C7.59896 29.2237 7.29167 28.4819 7.29167 27.7083C7.29167 26.9348 7.59896 26.1929 8.14594 25.6459C8.69292 25.099 9.43479 24.7917 10.2083 24.7917C10.9819 24.7917 11.7237 25.099 12.2707 25.6459C12.8177 26.1929 13.125 26.9348 13.125 27.7083V27.7083Z" stroke="#2C2E43" stroke-width="2" stroke-linecap="round" stroke-linejoin="round"/>
<path d="M18 13H15M18 10V13V10ZM18 13V16V13ZM18 13H21H18Z" stroke="#2C2E43" stroke-width="2" stroke-linecap="round" stroke-linejoin="round"/>
</svg>
