<svg width="241" height="31" viewBox="0 0 241 31" fill="none" xmlns="http://www.w3.org/2000/svg">
<path d="M0.43625 30V0.799999H18.5163V6.24H6.83625V12.44H17.8763V17.88H6.83625V24.56H18.7963V30H0.43625ZM33.1584 30.76C31.2651 30.76 29.6118 30.4533 28.1984 29.84C26.8118 29.2 25.6518 28.3467 24.7184 27.28C23.7851 26.2133 23.0918 25.0133 22.6384 23.68C22.1851 22.32 21.9584 20.92 21.9584 19.48V18.72C21.9584 16.72 22.3718 14.8533 23.1984 13.12C24.0518 11.3867 25.3051 9.98667 26.9584 8.92C28.6384 7.85333 30.6918 7.32 33.1184 7.32C35.0918 7.32 36.8384 7.70667 38.3584 8.48C39.8784 9.22666 41.0918 10.28 41.9984 11.64C42.9051 13 43.4118 14.56 43.5184 16.32H37.2384C37.1318 15.3333 36.7318 14.5067 36.0384 13.84C35.3451 13.1467 34.3718 12.8 33.1184 12.8C31.4918 12.8 30.2918 13.3867 29.5184 14.56C28.7451 15.7067 28.3584 17.2267 28.3584 19.12C28.3584 20.9067 28.7184 22.3867 29.4384 23.56C30.1851 24.7067 31.4251 25.28 33.1584 25.28C34.4384 25.28 35.4384 24.9467 36.1584 24.28C36.8784 23.6133 37.3051 22.7333 37.4384 21.64H43.6784C43.5718 23.4533 43.0518 25.0533 42.1184 26.44C41.2118 27.8 39.9718 28.8667 38.3984 29.64C36.8518 30.3867 35.1051 30.76 33.1584 30.76ZM58.4516 30.76C55.8916 30.76 53.7049 30.24 51.8916 29.2C50.1049 28.16 48.7449 26.8 47.8116 25.12C46.8782 23.4133 46.4116 21.56 46.4116 19.56V18.64C46.4116 16.5867 46.8916 14.7067 47.8516 13C48.8382 11.2667 50.2249 9.89333 52.0116 8.88C53.8249 7.84 55.9716 7.32 58.4516 7.32C60.9316 7.32 63.0782 7.84 64.8916 8.88C66.7049 9.89333 68.0916 11.2667 69.0516 13C70.0382 14.7067 70.5316 16.5867 70.5316 18.64V19.56C70.5316 21.56 70.0516 23.4133 69.0916 25.12C68.1582 26.8 66.7982 28.16 65.0116 29.2C63.2249 30.24 61.0382 30.76 58.4516 30.76ZM58.4516 25.36C60.2916 25.36 61.6916 24.7733 62.6516 23.6C63.6382 22.4 64.1316 20.9067 64.1316 19.12C64.1316 17.28 63.6249 15.76 62.6116 14.56C61.6249 13.3333 60.2382 12.72 58.4516 12.72C56.6649 12.72 55.2782 13.3333 54.2916 14.56C53.3049 15.76 52.8116 17.28 52.8116 19.12C52.8116 20.9067 53.2916 22.4 54.2516 23.6C55.2116 24.7733 56.6116 25.36 58.4516 25.36ZM74.9981 30V8.08H80.0781V13.64C80.9315 9.48 83.3048 7.4 87.1981 7.4H87.4781C90.8648 7.4 93.1048 8.98667 94.1981 12.16C95.3181 8.98667 97.5715 7.4 100.958 7.4H101.238C103.718 7.4 105.611 8.25333 106.918 9.96C108.225 11.6667 108.878 14.1867 108.878 17.52V30H102.478V17.16C102.478 15.96 102.158 14.9867 101.518 14.24C100.905 13.4933 100.025 13.12 98.8781 13.12C97.7315 13.12 96.8248 13.5067 96.1581 14.28C95.4915 15.0533 95.1581 16.0533 95.1581 17.28V30H88.7181V17.16C88.7181 15.96 88.3981 14.9867 87.7581 14.24C87.1448 13.4933 86.2781 13.12 85.1581 13.12C83.9848 13.12 83.0648 13.5067 82.3981 14.28C81.7315 15.0533 81.3981 16.0533 81.3981 17.28V30H74.9981ZM114.334 30V8.08H119.414V13.64C120.267 9.48 122.641 7.4 126.534 7.4H126.814C130.201 7.4 132.441 8.98667 133.534 12.16C134.654 8.98667 136.907 7.4 140.294 7.4H140.574C143.054 7.4 144.947 8.25333 146.254 9.96C147.561 11.6667 148.214 14.1867 148.214 17.52V30H141.814V17.16C141.814 15.96 141.494 14.9867 140.854 14.24C140.241 13.4933 139.361 13.12 138.214 13.12C137.067 13.12 136.161 13.5067 135.494 14.28C134.827 15.0533 134.494 16.0533 134.494 17.28V30H128.054V17.16C128.054 15.96 127.734 14.9867 127.094 14.24C126.481 13.4933 125.614 13.12 124.494 13.12C123.321 13.12 122.401 13.5067 121.734 14.28C121.067 15.0533 120.734 16.0533 120.734 17.28V30H114.334ZM163.71 30.76C161.843 30.76 160.19 30.44 158.75 29.8C157.337 29.16 156.15 28.3067 155.19 27.24C154.23 26.1467 153.51 24.9333 153.03 23.6C152.55 22.24 152.31 20.8533 152.31 19.44V18.64C152.31 17.2 152.55 15.8 153.03 14.44C153.51 13.08 154.23 11.8667 155.19 10.8C156.15 9.73333 157.31 8.89333 158.67 8.28C160.057 7.64 161.657 7.32 163.47 7.32C165.817 7.32 167.79 7.85333 169.39 8.92C171.017 9.96 172.257 11.3333 173.11 13.04C173.963 14.7467 174.39 16.5867 174.39 18.56V20.72H158.35C158.563 22.2133 159.097 23.4 159.95 24.28C160.83 25.1333 162.083 25.56 163.71 25.56C164.857 25.56 165.803 25.3467 166.55 24.92C167.323 24.4667 167.843 23.8933 168.11 23.2H173.99C173.51 25.44 172.35 27.2667 170.51 28.68C168.697 30.0667 166.43 30.76 163.71 30.76ZM163.47 12.52C162.083 12.52 160.95 12.92 160.07 13.72C159.217 14.4933 158.67 15.6133 158.43 17.08H168.27C168.057 15.6133 167.537 14.4933 166.71 13.72C165.91 12.92 164.83 12.52 163.47 12.52ZM178.631 30V8.08H183.711V15.52C183.951 13.04 184.711 11.1333 185.991 9.8C187.298 8.46667 189.071 7.8 191.311 7.8H192.151V13.32H190.551C188.764 13.32 187.391 13.8 186.431 14.76C185.498 15.72 185.031 17.08 185.031 18.84V30H178.631ZM205.19 30.76C203.296 30.76 201.643 30.4533 200.23 29.84C198.843 29.2 197.683 28.3467 196.75 27.28C195.816 26.2133 195.123 25.0133 194.67 23.68C194.216 22.32 193.99 20.92 193.99 19.48V18.72C193.99 16.72 194.403 14.8533 195.23 13.12C196.083 11.3867 197.336 9.98667 198.99 8.92C200.67 7.85333 202.723 7.32 205.15 7.32C207.123 7.32 208.87 7.70667 210.39 8.48C211.91 9.22666 213.123 10.28 214.03 11.64C214.936 13 215.443 14.56 215.55 16.32H209.27C209.163 15.3333 208.763 14.5067 208.07 13.84C207.376 13.1467 206.403 12.8 205.15 12.8C203.523 12.8 202.323 13.3867 201.55 14.56C200.776 15.7067 200.39 17.2267 200.39 19.12C200.39 20.9067 200.75 22.3867 201.47 23.56C202.216 24.7067 203.456 25.28 205.19 25.28C206.47 25.28 207.47 24.9467 208.19 24.28C208.91 23.6133 209.336 22.7333 209.47 21.64H215.71C215.603 23.4533 215.083 25.0533 214.15 26.44C213.243 27.8 212.003 28.8667 210.43 29.64C208.883 30.3867 207.136 30.76 205.19 30.76ZM229.843 30.76C227.976 30.76 226.323 30.44 224.883 29.8C223.469 29.16 222.283 28.3067 221.323 27.24C220.363 26.1467 219.643 24.9333 219.163 23.6C218.683 22.24 218.443 20.8533 218.443 19.44V18.64C218.443 17.2 218.683 15.8 219.163 14.44C219.643 13.08 220.363 11.8667 221.323 10.8C222.283 9.73333 223.443 8.89333 224.803 8.28C226.189 7.64 227.789 7.32 229.603 7.32C231.949 7.32 233.923 7.85333 235.523 8.92C237.149 9.96 238.389 11.3333 239.243 13.04C240.096 14.7467 240.523 16.5867 240.523 18.56V20.72H224.483C224.696 22.2133 225.229 23.4 226.083 24.28C226.963 25.1333 228.216 25.56 229.843 25.56C230.989 25.56 231.936 25.3467 232.683 24.92C233.456 24.4667 233.976 23.8933 234.243 23.2H240.123C239.643 25.44 238.483 27.2667 236.643 28.68C234.829 30.0667 232.563 30.76 229.843 30.76ZM229.603 12.52C228.216 12.52 227.083 12.92 226.203 13.72C225.349 14.4933 224.803 15.6133 224.563 17.08H234.403C234.189 15.6133 233.669 14.4933 232.843 13.72C232.043 12.92 230.963 12.52 229.603 12.52Z" fill="#2C2E43"/>
</svg>
